<svg xmlns="http://www.w3.org/2000/svg" width="1920" height="515" viewBox="0 0 1920 515" version="1.1"><path d="M 380.482 183.456 C 372.507 184.905, 363.890 188.891, 361.570 192.204 C 356.047 200.088, 364.719 206.855, 381.500 207.756 C 393.667 208.410, 405.095 205.463, 411.118 200.118 C 419.581 192.607, 414.548 185.593, 398.871 183.049 C 391.129 181.793, 389.427 181.830, 380.482 183.456 M 98.982 200.996 C 84.335 204.645, 76.956 212.953, 83.250 218.709 C 87.917 222.976, 92.177 224.318, 102.500 224.773 C 129.247 225.950, 146.912 211.706, 129.500 203 C 125.180 200.840, 123.004 200.474, 113.500 200.310 C 107.450 200.205, 100.917 200.514, 98.982 200.996" stroke="none" fill="#e0074c" fill-rule="evenodd"/><path d="M 389 35.659 C 384.227 37.575, 382.732 42.122, 385.139 47.405 C 386.256 49.858, 391.382 53, 394.267 53 C 395.072 53, 398.961 54.616, 402.908 56.591 C 411.236 60.757, 413.554 60.552, 412.610 55.735 C 411.393 49.529, 406.662 41.612, 402.416 38.677 C 398.415 35.912, 391.978 34.464, 389 35.659 M 64.500 53.853 C 62.850 54.895, 60.287 57.041, 58.804 58.623 C 55.538 62.107, 51.633 70.601, 52.390 72.573 C 53.100 74.424, 56.344 74.391, 60.011 72.494 C 61.612 71.666, 66.084 70.324, 69.948 69.511 C 78.848 67.639, 80.788 66.404, 82.199 61.715 C 83.196 58.402, 83.085 57.590, 81.317 55.215 C 79.572 52.871, 78.489 52.463, 73.398 52.230 C 68.988 52.028, 66.743 52.438, 64.500 53.853 M 356 62.486 C 352.425 63.288, 345.327 66.006, 340.227 68.526 C 325.474 75.818, 312.764 89.776, 307.468 104.500 C 306.479 107.250, 305.406 109.797, 305.085 110.160 C 304.763 110.523, 297.975 109.949, 290 108.886 C 269.404 106.139, 235.188 106.158, 214 108.929 C 199.094 110.879, 179.291 115.171, 170.124 118.440 C 167.718 119.298, 165.224 120, 164.583 120 C 163.941 120, 162.248 117.617, 160.820 114.705 C 153.185 99.137, 138.287 86.428, 120.802 80.566 C 89.179 69.964, 53.010 84.791, 38.522 114.296 C 36.036 119.358, 33.282 126.385, 32.402 129.910 C 30.475 137.633, 30.248 152.268, 31.929 160.500 C 33.955 170.426, 40.940 183.611, 48.491 191.768 L 55.139 198.947 50.684 205.224 C 48.234 208.676, 43.958 216.043, 41.182 221.597 C 28.241 247.486, 22.058 275.898, 22.020 309.644 C 21.983 341.960, 25.551 364.472, 34.161 386.250 L 37.225 394 43.196 394 C 46.480 394, 49.013 393.662, 48.825 393.250 C 48.637 392.837, 46.856 389.350, 44.867 385.500 C 38.285 372.758, 33.347 356.572, 30.985 340 C 28.333 321.386, 30.433 281.745, 35.141 261.577 C 39.170 244.315, 47.381 224.657, 57.569 207.887 L 61.201 201.908 65.850 202.494 L 70.500 203.080 66.524 199.790 C 44.923 181.915, 38.532 170.187, 38.575 148.500 C 38.623 123.838, 49.252 103.723, 68.047 92.724 C 77.150 87.396, 85.825 84.872, 97 84.299 C 123.746 82.928, 144.869 95.722, 156.305 120.219 C 158.031 123.915, 160.130 127.092, 160.971 127.279 C 161.812 127.467, 164.975 126.786, 168 125.767 C 205.608 113.096, 249.045 110.001, 296.230 116.630 C 309.399 118.480, 310.361 118.219, 311.433 112.505 C 311.786 110.622, 313.933 105.350, 316.202 100.790 C 324.014 85.099, 339.952 72.331, 356.613 68.417 C 365.624 66.300, 380.950 66.960, 390.015 69.855 C 412.133 76.918, 429.414 97.450, 433.069 121.009 C 435.832 138.815, 430.420 156.661, 417.653 171.845 C 412.356 178.145, 412.774 179.655, 418.798 175.982 L 422.097 173.971 426.313 176.871 C 436.373 183.793, 451.264 202.464, 458.886 217.712 C 473.101 246.153, 480.806 285.892, 478.039 316.500 C 475.415 345.530, 466.164 367.313, 447.993 387.250 L 441.841 394 447.918 394 L 453.995 394 460.548 385.750 C 490.927 347.505, 495.115 284.038, 471.062 226.393 C 462.979 207.020, 448.433 186.555, 434.737 175.285 L 428.399 170.070 433.049 160.604 C 438.748 148.997, 440.521 141.357, 440.382 129 C 440.039 98.494, 420.563 72.671, 391 63.523 C 383.360 61.159, 364.426 60.598, 356 62.486 M 356.730 96.361 C 342.498 102.360, 334.620 112.403, 333.362 126.152 C 332.300 137.768, 336.585 151.846, 343.304 158.814 C 353.418 169.302, 374.634 174.102, 388.292 168.992 C 396.239 166.018, 401.336 161.122, 405.722 152.248 C 409.295 145.018, 409.500 144.087, 409.500 135.052 C 409.500 126.379, 409.205 124.878, 406.299 118.741 C 402.027 109.723, 394.675 102.102, 386.222 97.927 C 380.522 95.113, 378.207 94.557, 371 94.269 C 363.763 93.979, 361.642 94.290, 356.730 96.361 M 374.250 104.031 C 369.268 106.034, 372.396 110.525, 383.905 117.897 C 390.478 122.107, 396.285 123.306, 397.299 120.662 C 398.739 116.911, 390.468 107.765, 382.705 104.521 C 378.606 102.808, 377.458 102.742, 374.250 104.031 M 85.341 114.335 C 73.257 118.941, 64.439 127.417, 61.526 137.226 C 58.082 148.822, 60.474 165.334, 67.033 175.236 C 74.217 186.082, 91.685 192.093, 107.169 189.047 C 123.909 185.753, 135.014 174.509, 138.108 157.720 C 141.199 140.942, 131.563 123.274, 115.222 115.757 C 105.880 111.460, 94.326 110.910, 85.341 114.335 M 102.250 123.609 C 98.036 125.490, 105.673 133.654, 116.846 139.212 C 123.344 142.445, 126.094 142.342, 126.785 138.841 C 127.216 136.657, 121.873 129.867, 117.153 126.601 C 113.086 123.787, 105.336 122.231, 102.250 123.609 M 272.517 154.947 C 272.157 156.082, 270.728 158.358, 269.342 160.005 C 266.032 163.939, 261.971 163.937, 253 160 C 249.241 158.350, 244.749 157, 243.018 157 C 241.218 157, 236.217 158.927, 231.339 161.500 C 226.647 163.975, 221.614 165.990, 220.154 165.978 C 216.363 165.947, 209.358 162.537, 208.045 160.085 C 206.735 157.636, 203.200 157.316, 202.336 159.567 C 201.407 161.989, 203.814 165.527, 207.987 167.872 C 213.430 170.932, 220.152 170.663, 229.650 167.005 C 240.937 162.659, 242.902 162.472, 250.545 165.015 C 261.921 168.801, 269.502 167.654, 275.499 161.241 C 278.651 157.869, 278.566 153.652, 275.336 153.192 C 273.864 152.982, 272.962 153.544, 272.517 154.947 M 234.250 175.491 C 230.748 177.013, 230.109 179.016, 232.495 180.996 C 233.705 182, 235.044 181.808, 239.524 179.990 C 243.414 178.411, 246.237 177.903, 249.029 178.277 C 253.732 178.908, 254.912 177.752, 251.794 175.568 C 248.961 173.584, 238.742 173.538, 234.250 175.491 M 381 237.571 C 378.525 238.971, 375.681 241.103, 374.680 242.309 C 368.762 249.432, 364.172 265.299, 362.051 285.966 C 360.565 300.453, 360.785 339.436, 362.505 366.500 C 363.310 379.150, 363.975 390.512, 363.984 391.750 C 363.998 393.757, 364.500 394, 368.635 394 L 373.271 394 372.581 381.250 C 372.201 374.238, 371.490 364.675, 371 360 C 369.146 342.301, 367.768 307.979, 368.383 294.817 C 370.066 258.792, 377.690 242.345, 392.989 241.735 C 400.324 241.442, 405.759 249.710, 410.489 268.357 C 416.157 290.702, 421.949 346.578, 422.009 379.500 C 422.035 393.433, 422.252 394, 427.568 394 L 431.903 394 431.448 385.750 C 431.197 381.212, 430.527 368.950, 429.957 358.500 C 427.217 308.255, 420.524 260.827, 414.514 249.068 C 411.635 243.433, 406.546 238.144, 402.282 236.352 C 400.512 235.609, 396.012 235.005, 392.282 235.012 C 386.874 235.022, 384.588 235.540, 381 237.571" stroke="none" fill="#05261b" fill-rule="evenodd"/><path d="M 0 257.501 L 0 515.001 960.250 514.751 L 1920.500 514.500 1920.752 257.250 L 1921.004 0 960.502 0 L 0 0 0 257.501 M 0.492 258 C 0.492 399.625, 0.608 457.562, 0.750 386.750 C 0.892 315.937, 0.892 200.062, 0.750 129.250 C 0.608 58.437, 0.492 116.375, 0.492 258 M 385.455 37.455 C 380.935 41.974, 383.238 49.678, 389.904 52.345 C 392.179 53.255, 394.594 53.993, 395.270 53.985 C 395.947 53.977, 399.802 55.660, 403.837 57.726 C 410.720 61.249, 411.255 61.371, 412.473 59.706 C 414.659 56.716, 412.394 49.045, 407.317 42.241 C 402.025 35.151, 390.321 32.589, 385.455 37.455 M 65.500 52.424 C 60.922 54.478, 55.162 61.068, 53.022 66.699 C 51.372 71.043, 51.294 72.019, 52.470 73.628 C 53.707 75.320, 54.158 75.369, 57.169 74.141 C 60.199 72.906, 64.765 71.578, 75.248 68.884 C 80.566 67.517, 83 64.535, 83 59.384 C 83 55.996, 82.471 54.729, 80.365 53.073 C 77.272 50.639, 70.169 50.330, 65.500 52.424 M 357.897 61.435 C 343.026 64.554, 328.112 73.196, 318.812 84.084 C 313.979 89.742, 306.687 102.525, 305.596 107.250 C 304.858 110.448, 304.724 110.461, 292.500 108.445 C 277.659 105.998, 237.327 105.435, 220 107.433 C 203.539 109.332, 189.386 112.065, 177 115.737 C 163.508 119.737, 164.838 119.983, 160.584 112.708 C 150.245 95.029, 135.054 83.326, 116 78.359 C 107.556 76.159, 91.678 76.159, 83 78.361 C 63.172 83.392, 45.207 97.858, 36.878 115.500 C 24.681 141.336, 28.958 171.750, 47.622 191.909 L 54.051 198.853 48.456 207.437 C 29.375 236.710, 19.792 275.962, 21.343 318.500 C 22.471 349.439, 26.406 370.703, 34.250 388.250 L 37.268 395 246.075 395 L 454.883 395 459.287 389.250 C 474.364 369.562, 482.401 349.627, 486.450 321.872 C 488.397 308.524, 488.397 301.416, 486.451 284.202 C 484.615 267.958, 480.120 248.173, 475.273 235 C 466.298 210.608, 451.131 187.757, 435.495 175.071 L 429.257 170.010 433.567 161.421 C 438.911 150.774, 441 141.861, 441 129.713 C 441 99.299, 421.529 72.618, 392.649 63.459 C 382.743 60.317, 367.467 59.427, 357.897 61.435 M 392.573 73.363 C 405.815 79.836, 413.839 86.263, 423.332 98 C 424.888 99.925, 425.657 100.482, 425.039 99.238 C 423.601 96.340, 415.441 86.309, 412.081 83.308 C 407.215 78.963, 399.496 74.286, 392.829 71.644 C 382.704 67.631, 382.578 68.478, 392.573 73.363 M 98.500 85.030 C 100.150 85.484, 104.505 86.604, 108.177 87.519 C 125.698 91.884, 142.429 107.907, 152.209 129.687 C 154.667 135.161, 155.880 136.857, 157 136.387 C 175.717 128.544, 206.107 119.694, 226.910 116.028 C 239.776 113.760, 235.059 113.463, 217.994 115.466 C 202.125 117.329, 189.589 119.929, 174.761 124.434 C 168.305 126.395, 162.160 128, 161.106 128 C 159.721 128, 158.326 126.156, 156.080 121.357 C 145.700 99.175, 130.055 87.677, 106.714 85.074 C 95.803 83.858, 94.210 83.849, 98.500 85.030 M 372.887 105.637 C 371.694 107.073, 372.137 107.809, 376.504 111.652 C 382.609 117.024, 393.028 122.587, 395.329 121.704 C 397.738 120.779, 397.402 118.855, 394.014 114.178 C 388.451 106.498, 376.261 101.570, 372.887 105.637 M 547 235 L 547 365 574.500 365 L 602 365 602 235 L 602 105 574.500 105 L 547 105 547 235 M 1151 164.032 L 1151 223.063 1145.391 218.919 C 1134.052 210.543, 1121.384 206.284, 1104.982 205.334 C 1073.520 203.512, 1046.805 219.414, 1032.128 248.701 C 1026.002 260.926, 1024.500 268.566, 1024.501 287.500 C 1024.502 306.618, 1025.557 312.215, 1031.554 324.911 C 1040.776 344.436, 1056.341 359.048, 1074.778 365.490 C 1100.309 374.410, 1128.498 369.537, 1146.211 353.142 L 1152 347.785 1152 356.392 L 1152 365 1179 365 L 1206 365 1206 235 L 1206 105 1178.500 105 L 1151 105 1151 164.032 M 1260 114.886 C 1242.053 120.716, 1232.561 140.062, 1239.089 157.509 C 1241.985 165.249, 1249.666 172.983, 1257.291 175.836 C 1277.488 183.393, 1299.035 169.894, 1300.743 148.614 C 1301.428 140.083, 1299.181 132.929, 1293.596 125.858 C 1287.475 118.107, 1280.291 114.585, 1270 114.290 C 1265.875 114.171, 1261.375 114.440, 1260 114.886 M 103.750 123.689 C 102.787 123.941, 102 124.967, 102 125.970 C 102 129.477, 116.131 139.660, 122.414 140.680 C 125.465 141.175, 125.999 140.981, 125.996 139.381 C 125.987 134.708, 119.213 127.658, 111.728 124.531 C 108.020 122.981, 106.908 122.864, 103.750 123.689 M 898.500 206.595 C 889.115 208.257, 876.555 212.215, 869.500 215.735 C 853.841 223.549, 838.819 238.267, 831.977 252.500 C 825.860 265.225, 824.582 271.360, 824.582 288 C 824.582 304.679, 825.871 310.839, 832.011 323.500 C 846.820 354.036, 882.808 372.008, 924.301 369.588 C 971.619 366.829, 1006.260 337.294, 1009.822 296.674 C 1012.466 266.517, 1001.849 241.952, 978.637 224.517 C 957.057 208.307, 926.915 201.566, 898.500 206.595 M 1418.678 206.507 C 1410.414 208.607, 1400.841 213.627, 1393.403 219.763 L 1387 225.044 1387 217.522 L 1387 210 1359.500 210 L 1332 210 1332 287.500 L 1332 365 1359.500 365 L 1387 365 1387.022 318.250 C 1387.047 265.380, 1386.746 267.587, 1395.174 258.409 C 1403.305 249.555, 1415.421 245.949, 1426.193 249.176 C 1431.500 250.766, 1438.510 257.145, 1441.797 263.377 L 1444.500 268.500 1444.786 316.750 L 1445.073 365 1472.617 365 L 1500.160 365 1499.754 309.250 C 1499.402 261.033, 1499.122 252.721, 1497.682 247.733 C 1492.683 230.421, 1482.431 219.188, 1465.114 212.047 C 1450.620 206.070, 1430.054 203.617, 1418.678 206.507 M 1587.500 205.557 C 1586.400 205.811, 1583.025 206.513, 1580 207.117 C 1554.687 212.164, 1531.975 234.462, 1523.920 262.171 C 1520.864 272.685, 1520.134 294.614, 1522.457 306.098 C 1525.896 323.100, 1534.651 338.883, 1546.908 350.180 C 1563.085 365.089, 1580.985 371.017, 1605.500 369.583 C 1622.877 368.567, 1634.153 365.431, 1643.462 359.026 L 1648.236 355.741 1647.852 366.133 C 1647.367 379.227, 1644.499 386.010, 1637.200 391.326 C 1625.104 400.135, 1613.542 402.696, 1598.458 399.908 C 1587.205 397.827, 1574.171 389.863, 1570.346 382.728 C 1569.490 381.131, 1567.228 382.005, 1547.448 391.574 C 1535.377 397.414, 1525.285 402.401, 1525.023 402.657 C 1524.242 403.417, 1530.178 413.721, 1534.758 419.558 C 1543.786 431.061, 1558.374 439.800, 1576.794 444.741 C 1585.830 447.164, 1588.052 447.349, 1609 447.422 C 1634.485 447.510, 1641.114 446.501, 1656 440.264 C 1677.724 431.163, 1692.377 416.223, 1698.434 397 C 1702.666 383.572, 1702.994 375.924, 1702.997 290.750 L 1703 210 1675.500 210 L 1648 210 1648 216.493 L 1648 222.987 1643.250 219.341 C 1637.354 214.816, 1626.421 209.573, 1618.500 207.472 C 1612.678 205.928, 1591.541 204.622, 1587.500 205.557 M 1801.500 206.595 C 1765.320 212.999, 1738.646 234.933, 1729.810 265.545 C 1726.783 276.032, 1726.537 298.820, 1729.341 309 C 1738.536 342.383, 1767.205 364.581, 1807 369.133 C 1818.688 370.470, 1834.081 369.654, 1845.917 367.071 C 1879.833 359.669, 1905.402 335.519, 1911.549 305.081 C 1914.083 292.536, 1913.217 273.211, 1909.652 262.744 C 1897.683 227.603, 1861.919 204.713, 1819.574 205.090 C 1814.033 205.139, 1805.900 205.817, 1801.500 206.595 M 634.237 262.250 C 634.588 312.425, 634.690 314.818, 636.807 322.500 C 643.332 346.176, 657.428 359.857, 681.500 365.874 C 703.246 371.309, 734.547 371.281, 755.500 365.807 C 780.130 359.372, 793.903 345.789, 800.191 321.730 C 802.229 313.933, 802.363 310.779, 802.743 261.750 L 803.143 210 775.618 210 L 748.093 210 747.766 256.250 C 747.401 307.989, 747.226 309.423, 740.366 317.017 C 731.065 327.311, 708.633 327.988, 697.907 318.297 C 689.455 310.661, 688.042 300.578, 688.017 247.750 L 688 210 660.936 210 L 633.872 210 634.237 262.250 M 1241 287.500 L 1241 365 1268 365 L 1295 365 1295 287.500 L 1295 210 1268 210 L 1241 210 1241 287.500 M 229 226.043 C 209.793 228.385, 188.958 234.537, 176.033 241.683 C 153.040 254.394, 135.559 274.346, 125.451 299.412 L 121.909 308.197 125.830 313.349 C 136.562 327.447, 157.127 344.878, 174.691 354.764 C 208.409 373.742, 243.743 381.338, 298.500 381.381 C 321.963 381.399, 327.203 381.109, 338.500 379.167 C 345.650 377.938, 353.750 376.352, 356.500 375.642 L 361.500 374.351 361 357.925 C 359.986 324.628, 360.620 288.132, 362.405 277 L 364.088 266.500 358.294 261.132 C 339.876 244.067, 316.359 232.986, 288 228.009 C 273.846 225.525, 241.960 224.462, 229 226.043 M 911.659 252.199 C 900.195 253.675, 890.201 261.071, 885.170 271.804 C 882.807 276.845, 882.500 278.707, 882.503 288 C 882.506 300.432, 884.178 305.069, 891.466 312.860 C 898.356 320.226, 904.173 322.462, 916.500 322.483 C 928.908 322.504, 934.436 320.592, 941.623 313.795 C 949.313 306.522, 952.401 298.989, 952.401 287.500 C 952.401 279.798, 952.001 277.619, 949.627 272.390 C 942.976 257.743, 928.480 250.034, 911.659 252.199 M 1814.602 252.206 C 1806.810 253.209, 1800.567 256.349, 1794.687 262.223 C 1787.275 269.627, 1785.506 274.399, 1785.503 287 C 1785.499 299.963, 1787.334 305.359, 1794.225 312.645 C 1800.500 319.279, 1807.067 322.172, 1817.254 322.788 C 1829.534 323.531, 1838.375 320.431, 1845.645 312.833 C 1853.683 304.432, 1857.074 292.990, 1855.021 281.196 C 1851.552 261.280, 1835.205 249.555, 1814.602 252.206 M 1105.500 253.343 C 1099.143 255.443, 1095.794 257.532, 1091.355 262.170 C 1086.118 267.640, 1083.460 272.949, 1082.041 280.774 C 1079.014 297.464, 1086.584 313.203, 1100.814 319.809 C 1107.642 322.978, 1119.521 323.945, 1126.824 321.925 C 1137.893 318.865, 1147.603 309.614, 1150.612 299.262 C 1152.817 291.678, 1152.150 278.251, 1149.246 271.765 C 1146.545 265.732, 1138.931 258.107, 1132.500 254.995 C 1126.446 252.065, 1112.037 251.183, 1105.500 253.343 M 1602.500 253.399 C 1596.042 255.441, 1592.656 257.565, 1588.269 262.324 C 1580.246 271.028, 1577.109 281.776, 1579.058 293.879 C 1581.847 311.200, 1593.852 321.973, 1611.324 322.833 C 1620.581 323.289, 1626.676 321.865, 1633.370 317.681 C 1643.527 311.333, 1649.125 300.609, 1649.125 287.500 C 1649.125 271.115, 1639.845 257.767, 1625.438 253.431 C 1619.658 251.692, 1607.950 251.675, 1602.500 253.399" stroke="none" fill="#ffffff" fill-rule="evenodd"/><path d="M 561.310 105.748 C 568.905 105.918, 581.055 105.918, 588.310 105.747 C 595.564 105.576, 589.350 105.437, 574.500 105.438 C 559.650 105.438, 553.714 105.578, 561.310 105.748 M 1165.310 105.748 C 1172.905 105.918, 1185.055 105.918, 1192.310 105.747 C 1199.564 105.576, 1193.350 105.437, 1178.500 105.438 C 1163.650 105.438, 1157.714 105.578, 1165.310 105.748 M 634.462 257 C 634.462 283.125, 634.591 293.813, 634.749 280.750 C 634.907 267.688, 634.907 246.313, 634.749 233.250 C 634.591 220.188, 634.462 230.875, 634.462 257 M 802.460 254.500 C 802.460 279.250, 802.590 289.232, 802.749 276.682 C 802.908 264.132, 802.908 243.882, 802.749 231.682 C 802.590 219.482, 802.460 229.750, 802.460 254.500 M 1241.476 287.500 C 1241.476 330.400, 1241.599 347.804, 1241.750 326.176 C 1241.900 304.547, 1241.900 269.447, 1241.750 248.176 C 1241.599 226.904, 1241.476 244.600, 1241.476 287.500 M 1332.476 287.500 C 1332.476 330.400, 1332.599 347.804, 1332.750 326.176 C 1332.900 304.547, 1332.900 269.447, 1332.750 248.176 C 1332.599 226.904, 1332.476 244.600, 1332.476 287.500 M 245.296 224.744 C 249.583 224.932, 256.333 224.931, 260.296 224.742 C 264.258 224.552, 260.750 224.399, 252.500 224.400 C 244.250 224.401, 241.008 224.556, 245.296 224.744 M 1445.461 319 C 1445.461 344.575, 1445.591 355.038, 1445.749 342.250 C 1445.907 329.463, 1445.907 308.538, 1445.749 295.750 C 1445.591 282.963, 1445.461 293.425, 1445.461 319 M 118.664 317.724 C 114.265 335.578, 112.794 347.943, 112.742 367.500 C 112.716 377.400, 113.027 387.406, 113.433 389.736 L 114.171 393.972 81.336 394.250 C 63.276 394.403, 119.652 394.634, 206.616 394.764 L 364.731 395 363.909 390.750 C 363.457 388.413, 363.015 383.125, 362.928 379 C 362.840 374.875, 362.568 372.258, 362.323 373.184 C 361.605 375.904, 340.797 379.966, 317.420 381.948 C 303.416 383.135, 270.382 381.876, 251.500 379.435 C 212.554 374.400, 181.816 362.603, 154.988 342.394 C 144.680 334.629, 125.251 315.068, 122.782 309.969 L 121.319 306.949 118.664 317.724 M 1147.451 351.251 L 1143.500 355.500 1147.750 351.547 L 1152 347.594 1152.204 356.547 L 1152.407 365.500 1152.747 357.093 C 1152.933 352.469, 1152.707 348.307, 1152.244 347.844 C 1151.782 347.382, 1149.625 348.915, 1147.451 351.251 M 385.250 394.747 C 392.262 394.919, 403.738 394.919, 410.750 394.747 C 417.762 394.575, 412.025 394.435, 398 394.435 C 383.975 394.435, 378.238 394.575, 385.250 394.747" stroke="none" fill="#b9e2a7" fill-rule="evenodd"/><path d="M 355.645 68.584 C 336.376 73.249, 317.389 91.668, 311.922 111 C 309.996 117.812, 309.339 118.328, 303.533 117.573 C 280.868 114.628, 271.715 113.923, 252.500 113.640 C 240.400 113.462, 233.650 113.616, 237.500 113.982 C 241.350 114.348, 242.891 114.726, 240.925 114.823 C 224.688 115.625, 181.290 127.038, 160.608 135.944 C 157.918 137.102, 155.551 137.884, 155.348 137.682 C 155.146 137.479, 152.924 133.080, 150.411 127.906 C 137.084 100.469, 117.372 86.380, 91.643 85.903 C 81.691 85.718, 75.314 87.896, 64.374 95.212 C 47.766 106.321, 38.621 125.209, 38.575 148.500 C 38.532 170.187, 44.923 181.915, 66.524 199.790 L 70.500 203.080 65.850 202.494 L 61.201 201.908 57.569 207.887 C 47.381 224.657, 39.170 244.315, 35.141 261.577 C 30.433 281.745, 28.333 321.386, 30.985 340 C 33.347 356.572, 38.285 372.758, 44.867 385.500 C 46.856 389.350, 48.625 392.800, 48.797 393.166 C 48.970 393.532, 48.322 393.982, 47.358 394.166 C 46.394 394.350, 60.867 394.365, 79.520 394.199 C 98.174 394.033, 113.518 393.808, 113.620 393.699 C 113.721 393.590, 113.401 387.875, 112.908 381 C 111.272 358.176, 114.743 328.453, 121.492 307.500 C 132.362 273.746, 156.327 247.734, 188.173 235.121 C 222.484 221.531, 273.929 220.490, 310.767 232.638 C 321.816 236.282, 337.351 243.925, 345.525 249.739 C 355.693 256.972, 363.983 264.831, 364.100 267.350 C 364.156 268.533, 364.823 266.656, 365.584 263.180 C 369.747 244.166, 378.475 235, 392.417 235 C 396.073 235, 400.512 235.609, 402.282 236.352 C 406.546 238.144, 411.635 243.433, 414.514 249.068 C 420.524 260.827, 427.217 308.255, 429.957 358.500 C 430.527 368.950, 431.197 381.213, 431.448 385.750 L 431.903 394 427.568 394 C 422.252 394, 422.035 393.433, 422.009 379.500 C 421.949 346.578, 416.157 290.702, 410.489 268.357 C 405.759 249.710, 400.324 241.442, 392.989 241.735 C 377.690 242.345, 370.066 258.792, 368.383 294.817 C 367.768 307.979, 369.146 342.301, 371 360 C 371.490 364.675, 372.199 374.209, 372.577 381.186 L 373.264 393.872 368.882 394.186 C 366.472 394.359, 384.525 394.500, 409 394.500 C 433.475 394.500, 450.897 394.365, 447.716 394.199 L 441.933 393.898 448.039 387.199 C 466.161 367.318, 475.417 345.503, 478.039 316.500 C 480.806 285.892, 473.101 246.153, 458.886 217.712 C 451.264 202.464, 436.373 183.793, 426.313 176.871 L 422.097 173.971 418.798 175.982 C 412.774 179.655, 412.356 178.145, 417.653 171.845 C 426.963 160.772, 432.261 148.636, 433.536 135.456 C 434.236 128.219, 432.712 114.563, 430.969 112.463 C 430.446 111.832, 430.313 111.020, 430.675 110.658 C 431.037 110.296, 430.760 110, 430.060 110 C 429.266 110, 429.035 109.352, 429.446 108.280 C 429.809 107.335, 429.800 106.867, 429.427 107.240 C 429.053 107.614, 426.946 105.125, 424.745 101.710 C 416.707 89.238, 401.753 77.463, 385.827 71.064 C 382.077 69.557, 379.307 68.027, 379.671 67.662 C 380.915 66.419, 361.515 67.163, 355.645 68.584 M 356.730 96.361 C 342.498 102.360, 334.620 112.403, 333.362 126.152 C 332.300 137.768, 336.585 151.846, 343.304 158.814 C 353.418 169.302, 374.634 174.102, 388.292 168.992 C 396.239 166.018, 401.336 161.122, 405.722 152.248 C 409.295 145.018, 409.500 144.087, 409.500 135.052 C 409.500 126.379, 409.205 124.878, 406.299 118.741 C 402.027 109.723, 394.675 102.102, 386.222 97.927 C 380.522 95.113, 378.207 94.557, 371 94.269 C 363.763 93.979, 361.642 94.290, 356.730 96.361 M 548 235.500 L 548 365 574.500 365 L 601 365 601 235.500 L 601 106 574.500 106 L 548 106 548 235.500 M 1152 165.499 L 1152 224.998 1146.250 220.555 C 1134.071 211.144, 1122.536 207.165, 1104.942 206.306 C 1078.235 205.001, 1056.714 214.936, 1040.850 235.892 C 1029.807 250.479, 1024.717 266.732, 1024.688 287.500 C 1024.666 303.044, 1027.076 314.228, 1033.041 326.252 C 1042.711 345.746, 1057.557 358.868, 1077.500 365.547 C 1089.130 369.441, 1106.150 370.109, 1118 367.137 C 1129.274 364.309, 1137.714 359.913, 1145.409 352.863 C 1148.887 349.675, 1152.019 347.352, 1152.367 347.700 C 1152.715 348.048, 1153 352.083, 1153 356.667 L 1153 365 1179 365 L 1205 365 1205 235.500 L 1205 106 1178.500 106 L 1152 106 1152 165.499 M 85.341 114.335 C 73.257 118.941, 64.439 127.417, 61.526 137.226 C 58.082 148.822, 60.474 165.334, 67.033 175.236 C 74.217 186.082, 91.685 192.093, 107.169 189.047 C 123.909 185.753, 135.014 174.509, 138.108 157.720 C 141.199 140.942, 131.563 123.274, 115.222 115.757 C 105.880 111.460, 94.326 110.910, 85.341 114.335 M 1255.416 117.880 C 1244.410 123.087, 1238.044 133.391, 1238.044 146 C 1238.044 154.551, 1239.950 159.793, 1245.542 166.617 C 1256.468 179.950, 1278.312 180.593, 1290.952 167.952 C 1306.209 152.696, 1301.434 126.629, 1281.701 117.441 C 1273.945 113.830, 1263.612 114.002, 1255.416 117.880 M 272.517 154.947 C 272.157 156.082, 270.728 158.358, 269.342 160.005 C 266.032 163.939, 261.971 163.937, 253 160 C 249.241 158.350, 244.749 157, 243.018 157 C 241.218 157, 236.217 158.927, 231.339 161.500 C 226.647 163.975, 221.614 165.990, 220.154 165.978 C 216.363 165.947, 209.358 162.537, 208.045 160.085 C 206.735 157.636, 203.200 157.316, 202.336 159.567 C 201.407 161.989, 203.814 165.527, 207.987 167.872 C 213.430 170.932, 220.152 170.663, 229.650 167.005 C 240.937 162.659, 242.902 162.472, 250.545 165.015 C 261.921 168.801, 269.502 167.654, 275.499 161.241 C 278.651 157.869, 278.566 153.652, 275.336 153.192 C 273.864 152.982, 272.962 153.544, 272.517 154.947 M 234.250 175.491 C 230.748 177.013, 230.109 179.016, 232.495 180.996 C 233.705 182, 235.044 181.808, 239.524 179.990 C 243.414 178.411, 246.237 177.903, 249.029 178.277 C 253.732 178.908, 254.912 177.752, 251.794 175.568 C 248.961 173.584, 238.742 173.538, 234.250 175.491 M 380.482 183.456 C 372.507 184.905, 363.890 188.891, 361.570 192.204 C 356.047 200.088, 364.719 206.855, 381.500 207.756 C 393.667 208.410, 405.095 205.463, 411.118 200.118 C 419.581 192.607, 414.548 185.593, 398.871 183.049 C 391.129 181.793, 389.427 181.830, 380.482 183.456 M 98.982 200.996 C 84.335 204.645, 76.956 212.953, 83.250 218.709 C 87.917 222.976, 92.177 224.318, 102.500 224.773 C 129.247 225.950, 146.912 211.706, 129.500 203 C 125.180 200.840, 123.004 200.474, 113.500 200.310 C 107.450 200.205, 100.917 200.514, 98.982 200.996 M 897.500 207.588 C 881.662 210.375, 868.062 216.278, 855.270 225.918 C 845.094 233.585, 838.037 242.132, 832.496 253.500 C 826.440 265.922, 824.598 275.709, 825.262 291.927 C 826.263 316.349, 835.483 334.534, 854.445 349.480 C 871.649 363.041, 889.917 368.483, 918 368.414 C 932.859 368.377, 936.858 368.025, 944.500 366.081 C 961.476 361.760, 975.760 353.842, 987.599 342.189 C 1006.539 323.548, 1013.788 296.369, 1007.387 268 C 1002.016 244.195, 980.647 221.564, 954.688 212.187 C 938.350 206.285, 915.390 204.439, 897.500 207.588 M 1418.112 207.521 C 1409.553 209.918, 1401.035 214.440, 1393.777 220.441 C 1390.079 223.499, 1386.816 226, 1386.527 226 C 1386.237 226, 1386 222.400, 1386 218 L 1386 210 1359.500 210 L 1333 210 1333 287.500 L 1333 365 1359.500 365 L 1386 365 1386 318.583 C 1386 265.657, 1385.740 267.468, 1394.698 257.891 C 1403.176 248.828, 1414.976 245.053, 1425.565 248.018 C 1431.782 249.759, 1440.014 257.361, 1443.118 264.230 L 1445.500 269.500 1445.795 317.250 L 1446.091 365 1472.606 365 L 1499.121 365 1498.727 308.750 C 1498.445 268.527, 1497.983 251.218, 1497.105 248 C 1491.791 228.511, 1476.874 215.151, 1453.446 208.897 C 1442.981 206.104, 1425.590 205.426, 1418.112 207.521 M 1580.500 207.560 C 1570.699 209.705, 1556.764 216.845, 1549.240 223.576 C 1533.387 237.761, 1524.302 255.806, 1522.093 277.500 C 1519.287 305.062, 1527.443 329.430, 1545.519 347.489 C 1559.792 361.749, 1573.878 367.861, 1594.527 368.752 C 1615.193 369.645, 1630.958 366.276, 1642.576 358.485 L 1649.220 354.030 1648.851 364.804 C 1648.518 374.558, 1648.173 376.206, 1645.209 382.227 C 1636.376 400.170, 1610.994 406.795, 1587.350 397.329 C 1582.167 395.255, 1579.109 393.140, 1574.447 388.409 L 1568.336 382.207 1547.168 392.534 C 1535.526 398.214, 1526 403.257, 1526 403.739 C 1526 405.167, 1532.835 416.092, 1536.610 420.700 C 1544.786 430.678, 1560.878 439.919, 1577 443.896 C 1594.176 448.134, 1618.049 448.742, 1635.990 445.400 C 1662.616 440.440, 1684.346 425.634, 1693.817 406 C 1701.775 389.502, 1701.366 395.114, 1701.740 297.250 L 1702.073 210 1675.536 210 L 1649 210 1649 217 C 1649 220.850, 1648.784 224, 1648.520 224 C 1648.256 224, 1645.712 222.238, 1642.867 220.084 C 1636.462 215.237, 1626.808 210.466, 1619.239 208.409 C 1610.829 206.123, 1589.229 205.650, 1580.500 207.560 M 1800.500 207.588 C 1774.019 212.249, 1751.975 226.367, 1738.647 247.203 C 1731.434 258.479, 1728 271.637, 1728 288 C 1728 301.509, 1730.191 311.588, 1735.498 322.500 C 1741.206 334.233, 1747.920 342.304, 1758.728 350.423 C 1776.587 363.838, 1799.241 369.943, 1826.532 368.694 C 1853.055 367.480, 1874.071 358.588, 1891.500 341.205 C 1909.717 323.036, 1916.697 294.772, 1909.956 266.471 C 1909.305 263.737, 1907.056 257.900, 1904.959 253.500 C 1893.887 230.273, 1868.717 212.468, 1840.074 207.602 C 1828.715 205.672, 1811.420 205.665, 1800.500 207.588 M 635.236 262.750 C 635.570 313.322, 635.675 315.822, 637.764 323.300 C 646.692 355.249, 670.971 368.987, 718.526 368.997 C 766.268 369.008, 790.174 355.228, 799.193 322.500 C 801.310 314.818, 801.412 312.425, 801.763 262.250 L 802.128 210 775.564 210 L 749 210 748.983 252.750 C 748.964 298.044, 748.459 304.259, 744.103 312.797 C 736.230 328.230, 708.532 330.980, 696.160 317.558 C 688.743 309.511, 688.625 308.601, 688.235 256.250 L 687.890 210 661.389 210 L 634.887 210 635.236 262.750 M 1242 287.500 L 1242 365 1268.500 365 L 1295 365 1295 287.500 L 1295 210 1268.500 210 L 1242 210 1242 287.500 M 906.286 252.393 C 891.331 257.271, 882.148 269.270, 881.207 285.164 C 880.251 301.296, 887.598 314.310, 901.209 320.595 C 906.824 323.188, 908.520 323.491, 917 323.413 C 930.288 323.291, 938.598 319.648, 945.904 310.742 C 953.191 301.859, 955.408 285.424, 950.926 273.504 C 948.030 265.800, 939.911 257.083, 932.691 253.925 C 926.240 251.104, 912.656 250.316, 906.286 252.393 M 1104.438 252.868 C 1089.956 257.811, 1080.930 270.892, 1080.895 286.988 C 1080.871 297.923, 1082.737 303.835, 1088.676 311.636 C 1096.308 321.661, 1112.610 326.343, 1126.764 322.575 C 1142.593 318.361, 1151.982 306.250, 1152.793 289 C 1153.254 279.183, 1151.122 271.953, 1145.632 264.718 C 1141.693 259.526, 1133.314 253.766, 1127.400 252.185 C 1121.154 250.514, 1110.397 250.834, 1104.438 252.868 M 1602.399 252.492 C 1593.453 255.316, 1584.584 263.237, 1580.693 271.878 C 1577.530 278.903, 1577.129 293.686, 1579.902 301.048 C 1585.693 316.420, 1599.070 324.928, 1615.500 323.689 C 1624.525 323.008, 1628.745 321.693, 1634.644 317.723 C 1640.652 313.680, 1645.206 307.734, 1648.001 300.282 C 1651.059 292.130, 1650.561 279.844, 1646.849 271.880 C 1642.208 261.923, 1635 255.606, 1624.500 252.292 C 1619.440 250.696, 1607.755 250.801, 1602.399 252.492 M 1809.286 252.393 C 1794.060 257.359, 1785.049 269.253, 1784.203 285.500 C 1783.427 300.403, 1788.404 310.759, 1800 318.373 C 1805.207 321.793, 1812.649 324, 1818.968 324 C 1841.025 324, 1856.100 309.181, 1856.100 287.500 C 1856.100 276.621, 1853.392 269.352, 1846.704 262.280 C 1839.492 254.655, 1832.797 251.672, 1822.081 251.309 C 1816.739 251.129, 1811.909 251.538, 1809.286 252.393 M 360.378 318 C 360.378 324.325, 360.541 326.913, 360.739 323.750 C 360.937 320.587, 360.937 315.413, 360.739 312.250 C 360.541 309.087, 360.378 311.675, 360.378 318" stroke="none" fill="#67b246" fill-rule="evenodd"/><path d="M 547.485 235 C 547.485 306.775, 547.604 336.137, 547.750 300.250 C 547.895 264.362, 547.895 205.637, 547.750 169.750 C 547.604 133.862, 547.485 163.225, 547.485 235 M 601.485 235 C 601.485 306.775, 601.604 336.137, 601.750 300.250 C 601.895 264.362, 601.895 205.637, 601.750 169.750 C 601.604 133.862, 601.485 163.225, 601.485 235 M 1151.469 164.500 C 1151.469 197.500, 1151.596 210.855, 1151.750 194.178 C 1151.904 177.501, 1151.903 150.501, 1151.749 134.178 C 1151.595 117.855, 1151.469 131.500, 1151.469 164.500 M 1205.485 235 C 1205.485 306.775, 1205.604 336.137, 1205.750 300.250 C 1205.895 264.362, 1205.895 205.637, 1205.750 169.750 C 1205.604 133.862, 1205.485 163.225, 1205.485 235 M 748.456 250 C 748.456 272.275, 748.588 281.388, 748.749 270.250 C 748.910 259.113, 748.910 240.888, 748.749 229.750 C 748.588 218.613, 748.456 227.725, 748.456 250 M 1702.477 292.500 C 1702.477 338.150, 1702.600 356.971, 1702.750 334.325 C 1702.899 311.678, 1702.900 274.328, 1702.750 251.325 C 1702.600 228.321, 1702.477 246.850, 1702.477 292.500 M 1499.465 314 C 1499.465 342.325, 1499.593 353.913, 1499.749 339.750 C 1499.906 325.588, 1499.906 302.413, 1499.749 288.250 C 1499.593 274.088, 1499.465 285.675, 1499.465 314 M 1386.461 320 C 1386.461 345.025, 1386.590 355.263, 1386.749 342.750 C 1386.908 330.238, 1386.908 309.763, 1386.749 297.250 C 1386.590 284.738, 1386.461 294.975, 1386.461 320 M 487.370 304 C 487.370 309.775, 487.535 312.137, 487.737 309.250 C 487.939 306.363, 487.939 301.637, 487.737 298.750 C 487.535 295.863, 487.370 298.225, 487.370 304" stroke="none" fill="#f7faf5" fill-rule="evenodd"/></svg>